<?xml version="1.0" encoding="UTF-8"?>
<svg version="1.1" xmlns="http://www.w3.org/2000/svg" width="512" height="512">
<path d="M0 0 C6.18783649 0.51156519 11.14062485 1.957659 16.8125 4.4375 C18.04093628 4.96657959 18.04093628 4.96657959 19.29418945 5.50634766 C49.70775276 18.85637764 82.93736422 38.47294 104.70507812 63.99951172 C106.70777469 66.1162656 108.41624817 67.6363532 111 69 C115.00915518 68.83074189 118.34011339 67.31342925 122 65.75 C124.12989615 64.93934942 126.26417852 64.14014443 128.40234375 63.3515625 C129.49144043 62.94711914 130.58053711 62.54267578 131.70263672 62.12597656 C136.90216198 60.3504538 142.18038343 59.19831226 147.5625 58.125 C148.48740234 57.93518555 149.41230469 57.74537109 150.36523438 57.54980469 C153.23727173 56.98656061 156.11327847 56.48228859 159 56 C160.0842627 55.81308594 161.16852539 55.62617187 162.28564453 55.43359375 C172.5005445 53.85755666 182.56907951 53.69338596 192.88671875 53.73925781 C195.7319902 53.74993243 198.57662315 53.73932588 201.421875 53.7265625 C216.55743078 53.71436321 231.756317 54.42933834 246.5625 57.8125 C247.32643066 57.97991699 248.09036133 58.14733398 248.87744141 58.31982422 C269.10166275 62.86333657 269.10166275 62.86333657 276.6328125 66.1484375 C279.65586387 67.23593783 281.80781446 67.39327056 285 67 C287.48854021 65.41799128 287.48854021 65.41799128 289.6875 63.125 C290.96173828 61.90876953 290.96173828 61.90876953 292.26171875 60.66796875 C293.16535156 59.78753906 294.06898438 58.90710938 295 58 C296.98556243 56.12989988 298.99101888 54.28236717 301 52.4375 C301.9075 51.59058594 302.815 50.74367187 303.75 49.87109375 C306 48 306 48 308 48 C308 47.34 308 46.68 308 46 C309.49023438 44.64648438 309.49023438 44.64648438 311.59375 43.09375 C312.36887939 42.51963379 313.14400879 41.94551758 313.94262695 41.35400391 C314.78656006 40.74218262 315.63049316 40.13036133 316.5 39.5 C317.79200317 38.55713135 317.79200317 38.55713135 319.11010742 37.59521484 C326.8492518 32.00444725 334.79675737 26.87654179 343 22 C344.11117188 21.32710937 345.22234375 20.65421875 346.3671875 19.9609375 C381.01704538 -0.50286092 381.01704538 -0.50286092 394 0 C413.7144077 37.22745474 417.02834289 77.5533776 404.734375 117.8125 C400.4075352 131.22270556 394.16273619 145.71218237 385.734375 157.046875 C383.81496973 159.76856254 383.81496973 159.76856254 383.94140625 162.359375 C385.50952841 166.27100074 387.68030334 169.7010709 389.9375 173.25 C390.94002817 174.85730882 391.94130033 176.46540163 392.94140625 178.07421875 C393.45074707 178.89067871 393.96008789 179.70713867 394.48486328 180.54833984 C396.83682691 184.35407926 399.11105066 188.20394662 401.375 192.0625 C401.79507324 192.77446533 402.21514648 193.48643066 402.64794922 194.2199707 C404.72038428 197.74827266 406.6913165 201.29731368 408.5625 204.9375 C410.96323823 209.32621796 414.21793794 212.77152673 417.62109375 216.41015625 C419.96906516 218.96632217 422.14515986 221.60234146 424.3125 224.3125 C427.69838155 228.49332765 431.2175953 232.49623528 434.875 236.4375 C435.37523682 236.97874512 435.87547363 237.51999023 436.39086914 238.07763672 C438.9624508 240.84830059 441.56306724 243.58335903 444.2109375 246.28125 C444.72156738 246.81177979 445.23219727 247.34230957 445.75830078 247.88891602 C447.1670358 249.35137202 448.59088875 250.79922177 450.015625 252.24609375 C452.43008696 255.59687265 452.4989198 256.94755944 452 261 C450.26953125 263.45872498 450.26953125 263.45872498 447.8125 265.88452148 C446.89734619 266.8024498 445.98219238 267.72037811 445.03930664 268.66612244 C444.02657962 269.65149862 443.01346746 270.63647913 442 271.62109375 C440.96417514 272.64825332 439.92960715 273.67668176 438.89624023 274.70631409 C436.17034533 277.41498557 433.4265031 280.10476421 430.67889404 282.79138184 C428.45752934 284.96938038 426.24901564 287.16014854 424.04116821 289.3518362 C405.37279089 307.88120275 405.37279089 307.88120275 397 315 C396.32366516 315.58241959 395.64733032 316.16483917 394.95050049 316.76490784 C372.41631186 336.15672884 347.20779664 349.94480175 319.65087891 360.92773438 C314.88943609 362.85371125 310.20335204 364.95004497 305.51171875 367.0390625 C303 368 303 368 300 368 C299.67 368.66 299.34 369.32 299 370 C293.86499497 371.6655628 289.51258852 372.09966508 284.15136719 371.97045898 C271.00639168 371.79461954 262.63920558 376.82056662 252 384 C249.24232685 385.791832 246.4685645 387.55722967 243.6875 389.3125 C243.03144775 389.72781982 242.37539551 390.14313965 241.69946289 390.57104492 C235.43115381 394.47490229 228.9407228 397.47767352 222 400 C221.25814453 400.27360352 220.51628906 400.54720703 219.75195312 400.82910156 C197.0337929 409.05400284 180.39033909 404.9528313 159 395 C158.16210938 394.61585938 157.32421875 394.23171875 156.4609375 393.8359375 C151.42977838 391.43927625 151.42977838 391.43927625 149.5859375 389.5546875 C147.67040586 387.67690033 145.6728266 386.57818238 143.3125 385.3125 C142.50425781 384.87550781 141.69601563 384.43851562 140.86328125 383.98828125 C140.24839844 383.66214844 139.63351563 383.33601563 139 383 C139 382.34 139 381.68 139 381 C138.27039063 380.73316406 137.54078125 380.46632813 136.7890625 380.19140625 C134.04197765 379.01793163 131.85839019 377.58365604 129.375 375.9375 C122.64571267 372.16141893 116.16356025 372.27757095 108.6484375 372.203125 C101.81545797 372.05230245 95.63282298 370.69971757 89.625 367.375 C86.04235016 365.3781075 86.04235016 365.3781075 82 365 C82 364.34 82 363.68 82 363 C80.902323 362.80772827 80.902323 362.80772827 79.7824707 362.61157227 C77.16296174 362.03581812 74.94126455 361.26525096 72.48046875 360.21484375 C71.20598877 359.67210815 71.20598877 359.67210815 69.90576172 359.1184082 C69.00873535 358.7287085 68.11170898 358.33900879 67.1875 357.9375 C66.25695801 357.5355542 65.32641602 357.1336084 64.36767578 356.71948242 C56.08674011 353.10571219 48.00839287 349.17868097 40 345 C39.04222656 344.51144531 38.08445312 344.02289063 37.09765625 343.51953125 C19.08248301 334.07545365 3.27448008 321.36358936 -11.45068359 307.45214844 C-14.77538018 304.33596575 -18.17713993 301.30382668 -21.5625 298.25390625 C-25.71349129 294.41556975 -29.64659193 290.35185816 -33.63175964 286.34259033 C-36.02033533 283.94059847 -38.41160492 281.54129579 -40.80297852 279.14208984 C-42.06558196 277.8744157 -43.32729259 276.60585172 -44.58813477 275.33642578 C-46.41449612 273.497985 -48.24402443 271.66274903 -50.07421875 269.828125 C-50.92109505 268.97350677 -50.92109505 268.97350677 -51.78507996 268.10162354 C-54.61937579 265.19122489 -54.61937579 265.19122489 -58 263 C-58 262.34 -58 261.68 -58 261 C-58.66 261 -59.32 261 -60 261 C-59.69033414 255.75503445 -56.63553885 253.25096636 -53 249.875 C-48.00337507 245.06869021 -43.49856434 240.1306444 -39.18359375 234.69140625 C-36.0576486 230.83849712 -32.70137064 227.21295024 -29.34765625 223.55859375 C-26.1666458 220.09176872 -23.04695557 216.58508138 -20 213 C-19.44957031 212.37480469 -18.89914063 211.74960937 -18.33203125 211.10546875 C-13.89757064 205.79832252 -10.77581918 200.06527133 -7.63085938 193.94824219 C-4.21064606 187.30747267 -0.50480042 180.85783041 3.28222656 174.42041016 C4.53361023 172.28701613 5.76884167 170.14510831 7 168 C7.63808594 166.90558594 8.27617188 165.81117188 8.93359375 164.68359375 C10.26261202 162.13333482 10.26261202 162.13333482 9.41796875 159.953125 C9.01191406 159.39109375 8.60585937 158.8290625 8.1875 158.25 C6 155 6 155 6 153 C5.34 153 4.68 153 4 153 C1.30123818 147.34800253 -1.36262869 141.68089005 -4 136 C-4.47308594 134.989375 -4.94617187 133.97875 -5.43359375 132.9375 C-12.01205778 118.09821065 -15.68593201 102.1036931 -17.73022461 86.05444336 C-17.985723 84.10872487 -18.29978078 82.17095778 -18.6171875 80.234375 C-20.49006567 64.89488036 -17.436611 47.71811286 -13 33 C-12.78327637 32.2687793 -12.56655273 31.53755859 -12.34326172 30.78417969 C-9.11442832 20.07312388 -4.98825004 10.00601636 0 0 Z " fill="#4C565F" transform="translate(60,53)"/>
<path d="M0 0 C1.08023438 0.24363281 2.16046875 0.48726562 3.2734375 0.73828125 C19.05039119 4.61816147 33.88732387 12.54667535 47 22 C58.36619917 30.10809153 71.18828268 38.89752155 85 42 C85 42.66 85 43.32 85 44 C85.5775 43.814375 86.155 43.62875 86.75 43.4375 C89.27822722 42.94590026 90.53178808 43.37510762 93 44 C103.57651815 44.80559746 113.97244451 44.62766226 124 41 C125.33224609 40.63455078 125.33224609 40.63455078 126.69140625 40.26171875 C139.20894178 36.66824937 150.70220545 29.62449898 161.125 21.9375 C187.50405921 2.4969005 218.70729669 -6.45219372 251.49365234 -2.71582031 C283.67669369 2.5993333 309.19988387 30.90831853 331 53 C329.12644715 57.22715219 326.92645693 58.55145343 322.9375 60.9375 C312.76296423 67.2112638 303.48261314 74.65189091 294.125 82.06640625 C293.5168042 82.54811279 292.9086084 83.02981934 292.28198242 83.52612305 C291.11225024 84.4525817 289.94312183 85.37980327 288.7746582 86.30786133 C284.84679688 89.403397 280.81784066 92.23546709 276.57421875 94.87890625 C274.84048327 95.92808912 274.84048327 95.92808912 274 98 C274.54785156 97.87882812 275.09570312 97.75765625 275.66015625 97.6328125 C285.27876367 95.59961093 295.14389407 93.78836582 305 94 C296.78900146 112.08078467 276.66004631 126.72461726 261 138 C260.33597168 138.48259277 259.67194336 138.96518555 258.98779297 139.46240234 C248.54984823 147.04583567 248.54984823 147.04583567 243.60546875 150.08984375 C242.74566406 150.72019531 241.88585937 151.35054687 241 152 C241 152.99 241 153.98 241 155 C236.96396092 156.6965938 232.92542913 158.38706737 228.88452148 160.07202148 C227.51143157 160.64555792 226.13902529 161.22073402 224.76733398 161.79760742 C222.79069485 162.62855583 220.81163738 163.45349302 218.83203125 164.27734375 C217.64327393 164.77484131 216.4545166 165.27233887 215.22973633 165.78491211 C212 167 212 167 209.13549805 167.54516602 C208.43078369 167.69526123 207.72606934 167.84535645 207 168 C206.67 168.66 206.34 169.32 206 170 C200.86499497 171.6655628 196.51258852 172.09966508 191.15136719 171.97045898 C178.00639168 171.79461954 169.63920558 176.82056662 159 184 C156.24232685 185.791832 153.4685645 187.55722967 150.6875 189.3125 C150.03144775 189.72781982 149.37539551 190.14313965 148.69946289 190.57104492 C142.43115381 194.47490229 135.9407228 197.47767352 129 200 C128.25814453 200.27360352 127.51628906 200.54720703 126.75195312 200.82910156 C104.0337929 209.05400284 87.39033909 204.9528313 66 195 C65.16210938 194.61585938 64.32421875 194.23171875 63.4609375 193.8359375 C58.42977838 191.43927625 58.42977838 191.43927625 56.5859375 189.5546875 C54.67040586 187.67690033 52.6728266 186.57818238 50.3125 185.3125 C49.50425781 184.87550781 48.69601563 184.43851563 47.86328125 183.98828125 C47.24839844 183.66214844 46.63351563 183.33601562 46 183 C46 182.34 46 181.68 46 181 C45.27039063 180.73316406 44.54078125 180.46632813 43.7890625 180.19140625 C41.04197765 179.01793163 38.85839019 177.58365604 36.375 175.9375 C29.64571267 172.16141893 23.16356025 172.27757095 15.6484375 172.203125 C8.81545797 172.05230245 2.63282298 170.69971757 -3.375 167.375 C-6.95764984 165.3781075 -6.95764984 165.3781075 -11 165 C-11 164.34 -11 163.68 -11 163 C-11.66515625 162.89429688 -12.3303125 162.78859375 -13.015625 162.6796875 C-16.73519671 161.83255991 -20.21145337 160.52269183 -23.75 159.125 C-24.43449219 158.86847656 -25.11898437 158.61195313 -25.82421875 158.34765625 C-27.58675153 157.65311363 -29.29897324 156.833918 -31 156 C-31.33 155.01 -31.66 154.02 -32 153 C-33.86322762 151.47398229 -35.7905346 150.02530088 -37.75 148.625 C-40.88242029 146.37984161 -43.76581754 144.2356553 -46.484375 141.5 C-49.26353871 138.73809817 -52.27837295 136.57283548 -55.5 134.375 C-62.17615088 129.71070666 -68.40213715 124.65719258 -74.52441406 119.29199219 C-75.89160206 118.09491097 -77.26958006 116.91018348 -78.6484375 115.7265625 C-83.33806478 111.62868629 -87.71020006 107.31663137 -91.9375 102.75 C-92.39850098 102.25443604 -92.85950195 101.75887207 -93.33447266 101.24829102 C-95.97664961 98.33837216 -98.028251 95.38786532 -100 92 C-99.1121582 92.15146484 -98.22431641 92.30292969 -97.30957031 92.45898438 C-94.00759612 93.02069158 -90.70515079 93.57944992 -87.40234375 94.13623047 C-85.97441001 94.37756682 -84.54667269 94.62006848 -83.11914062 94.86376953 C-81.06431098 95.2143498 -79.00880569 95.56069948 -76.953125 95.90625 C-75.71723633 96.11572266 -74.48134766 96.32519531 -73.20800781 96.54101562 C-69.88016644 97.09442153 -69.88016644 97.09442153 -66 97 C-66.94617188 96.36835938 -67.89234375 95.73671875 -68.8671875 95.0859375 C-76.45420744 89.97091791 -83.82002644 84.67423098 -91 79 C-98.52108263 73.05965253 -106.25845096 67.55981035 -114.21240234 62.21826172 C-117.17863315 60.19675233 -120.08724272 58.09763393 -123 56 C-121.64933755 51.96924114 -119.94407943 49.57760507 -116.9296875 46.6015625 C-116.115 45.79203125 -115.3003125 44.9825 -114.4609375 44.1484375 C-113.60757813 43.31570313 -112.75421875 42.48296875 -111.875 41.625 C-111.04484375 40.8 -110.2146875 39.975 -109.359375 39.125 C-104.39515329 34.22302558 -99.30309868 29.53136823 -94 25 C-93.04996094 24.16855469 -92.09992188 23.33710938 -91.12109375 22.48046875 C-79.75735172 12.77083764 -68.3625908 4.63932947 -54 0 C-53.03191406 -0.350625 -52.06382813 -0.70125 -51.06640625 -1.0625 C-35.48613886 -5.82589385 -15.54218199 -4.24720725 0 0 Z " fill="#010101" transform="translate(153,253)"/>
<path d="M0 0 C0.804375 0.474375 1.60875 0.94875 2.4375 1.4375 C3.38625 1.89125 4.335 2.345 5.3125 2.8125 C21.8757085 11.42536842 40.9351554 24.85821099 47.05102539 43.28613281 C48.39459111 48.14561042 48.79024543 52.78469652 48.75 57.8125 C48.74436035 58.55636963 48.7387207 59.30023926 48.73291016 60.06665039 C48.42814129 73.92156367 41.99797653 84.67142183 32.4375 94.4375 C31.61572266 95.27861328 31.61572266 95.27861328 30.77734375 96.13671875 C20.61376299 105.71952347 7.46278693 112.70398346 -5.5625 117.4375 C-6.6752832 117.84790527 -6.6752832 117.84790527 -7.81054688 118.26660156 C-30.5287071 126.49150284 -47.17216091 122.3903313 -68.5625 112.4375 C-69.81933594 111.86128906 -69.81933594 111.86128906 -71.1015625 111.2734375 C-76.13685364 108.8748079 -76.13685364 108.8748079 -77.98828125 106.97265625 C-79.85298777 105.15422036 -81.73427357 104.21885246 -84.0625 103.0625 C-87.92979416 100.98250604 -89.50261782 99.36108511 -91.5625 95.4375 C-93.00211411 94.29235241 -94.44184996 93.14735662 -95.8828125 92.00390625 C-103.99113113 84.44242771 -109.18634865 73.57714188 -109.765625 62.58203125 C-110.05964567 46.51999634 -106.35684775 35.41088663 -95.08691406 23.49169922 C-88.51089353 16.79692876 -81.5343519 11.3852041 -73.5625 6.4375 C-72.56734375 5.80457031 -71.5721875 5.17164063 -70.546875 4.51953125 C-64.9666125 1.18814503 -62.11629629 -0.17976223 -55.5625 1.4375 C-53.06956465 2.67851268 -50.78789695 3.91568761 -48.4375 5.375 C-40.75312114 10.03396723 -34.69449507 13.05473643 -25.5625 11.4375 C-19.34357074 9.11878767 -13.23778647 5.85818606 -7.69726562 2.20898438 C-3.17845546 -0.69770973 -3.17845546 -0.69770973 0 0 Z " fill="#EAE8E3" transform="translate(287.5625,335.5625)"/>
<path d="M0 0 C1.41546714 -0.01141247 2.83089502 -0.03168987 4.24609375 -0.06152344 C14.78718243 -0.28303728 23.71463229 1.04319974 33.77490234 4.29516602 C34.54092773 4.53614014 35.30695313 4.77711426 36.09619141 5.02539062 C51.98394687 10.32616903 65.56578997 20.04020114 77.77490234 31.29516602 C78.74298828 32.18075195 79.71107422 33.06633789 80.70849609 33.97875977 C93.77039554 46.46093552 103.00576622 62.21781521 108.77490234 79.29516602 C108.77490234 80.61516602 108.77490234 81.93516602 108.77490234 83.29516602 C101.7696757 82.03366142 96.15548608 79.83986871 89.89990234 76.48266602 C88.99079102 76.00200684 88.08167969 75.52134766 87.14501953 75.02612305 C79.97819622 71.14689038 73.32832761 66.71431469 66.68212891 62.01293945 C59.09398331 56.69134134 51.12704196 52.29710488 42.77490234 48.29516602 C42.07026855 47.95267822 41.36563477 47.61019043 40.63964844 47.25732422 C35.10622273 44.66918734 29.58504918 43.01240777 23.64990234 41.60766602 C22.79525391 41.39561523 21.94060547 41.18356445 21.06005859 40.96508789 C11.9463495 38.74615872 3.32863042 38.11297868 -6.03759766 38.10766602 C-7.7246582 38.08929688 -7.7246582 38.08929688 -9.44580078 38.07055664 C-36.26532505 38.02380558 -55.61211435 51.57105099 -74.72900391 69.01782227 C-76.37186507 70.51670811 -78.02531921 72.00407861 -79.68994141 73.47875977 C-84.30121958 77.56553236 -88.81616878 81.74154017 -93.22509766 86.04516602 C-94.13259766 86.92688477 -95.04009766 87.80860352 -95.97509766 88.71704102 C-98.15809024 91.21838668 -99.23153543 93.15641262 -100.22509766 96.29516602 C-99.38591797 96.83141602 -98.54673828 97.36766602 -97.68212891 97.92016602 C-88.89182524 103.61959302 -80.53444902 109.77412351 -72.23852539 116.16894531 C-65.53206824 121.33052979 -58.72650304 126.3295755 -51.8215332 131.22216797 C-51.12713135 131.71676514 -50.43272949 132.2113623 -49.71728516 132.72094727 C-49.11255371 133.14802979 -48.50782227 133.5751123 -47.88476562 134.01513672 C-46.18359003 135.32717903 -44.70924291 136.74458759 -43.22509766 138.29516602 C-54.73155401 137.80966153 -65.9419435 135.46233885 -77.22509766 133.29516602 C-62.3726723 150.92004411 -45.95498408 165.21479024 -27.22509766 178.60766602 C-23.53802744 181.26405666 -20.40003057 184.03668223 -17.22509766 187.29516602 C-14.27155772 189.69020011 -11.25826659 192.00211673 -8.22509766 194.29516602 C-11.22509766 195.29516602 -11.22509766 195.29516602 -14.49072266 193.92407227 C-15.82442664 193.24613569 -17.15221943 192.55649184 -18.47509766 191.85766602 C-19.18529053 191.4907666 -19.8954834 191.12386719 -20.62719727 190.74584961 C-22.1067188 189.97895745 -23.58383087 189.20740036 -25.05859375 188.43139648 C-27.06069048 187.38138993 -29.07212034 186.35279008 -31.08837891 185.33032227 C-50.29702091 175.48504168 -67.03109416 162.52746529 -82.67578125 147.74731445 C-86.00047784 144.63113177 -89.40223758 141.5989927 -92.78759766 138.54907227 C-96.93858895 134.71073577 -100.87168959 130.64702418 -104.8568573 126.63775635 C-107.24543298 124.23576448 -109.63670257 121.83646181 -112.02807617 119.43725586 C-113.29067962 118.16958172 -114.55239025 116.90101774 -115.81323242 115.6315918 C-117.63959378 113.79315102 -119.46912209 111.95791504 -121.29931641 110.12329102 C-122.1461927 109.26867279 -122.1461927 109.26867279 -123.01017761 108.39678955 C-125.84447344 105.48639091 -125.84447344 105.48639091 -129.22509766 103.29516602 C-129.22509766 102.63516602 -129.22509766 101.97516602 -129.22509766 101.29516602 C-129.88509766 101.29516602 -130.54509766 101.29516602 -131.22509766 101.29516602 C-130.91543179 96.05020047 -127.86063651 93.54613237 -124.22509766 90.17016602 C-119.22847273 85.36385622 -114.72366199 80.42581042 -110.40869141 74.98657227 C-107.28562235 71.13720808 -103.93332553 67.51452798 -100.58056641 63.86547852 C-96.44523696 59.35296314 -92.39940857 54.78179559 -88.60009766 49.98266602 C-86.22509766 47.29516602 -86.22509766 47.29516602 -84.00244141 45.99829102 C-80.44062522 43.81411119 -77.51672383 41.13908398 -74.41259766 38.35766602 C-63.19664608 28.51498394 -51.38842833 19.88512603 -38.85009766 11.79516602 C-37.94702881 11.20743408 -37.04395996 10.61970215 -36.11352539 10.01416016 C-24.12709934 2.41421856 -14.05828031 0.07847525 0 0 Z " fill="#ECEBE6" transform="translate(131.22509765625,212.704833984375)"/>
<path d="M0 0 C2.00574691 -0.00437511 4.00928764 -0.04084107 6.01464844 -0.07861328 C17.44648787 -0.11243529 27.58062778 2.06595006 37.45214844 7.93310547 C38.01853027 8.26898682 38.58491211 8.60486816 39.16845703 8.95092773 C57.74099595 20.16162943 74.73696497 33.83694068 91.63964844 47.37060547 C92.20167969 47.80501953 92.76371094 48.23943359 93.34277344 48.68701172 C97.90865245 52.36508092 101.42388229 56.63214779 105.07714844 61.19873047 C107.89848535 64.71652948 110.81817486 68.14480652 113.76464844 71.55810547 C114.30130127 72.18249512 114.8379541 72.80688477 115.39086914 73.45019531 C118.43638212 76.95704202 121.56106307 80.3532028 124.80761719 83.67529297 C125.49774902 84.38661377 126.18788086 85.09793457 126.89892578 85.83081055 C128.24159475 87.20556946 129.59700128 88.56803148 130.96630859 89.91625977 C131.57651855 90.54185791 132.18672852 91.16745605 132.81542969 91.81201172 C133.36110596 92.35543213 133.90678223 92.89885254 134.46899414 93.45874023 C136.17854972 96.25071725 135.97928923 98.13956878 135.63964844 101.37060547 C133.90917969 103.82933044 133.90917969 103.82933044 131.45214844 106.25512695 C130.07941772 107.63201942 130.07941772 107.63201942 128.67895508 109.03672791 C127.66622805 110.02210409 126.6531159 111.0070846 125.63964844 111.99169922 C124.60382358 113.01885879 123.56925559 114.04728723 122.53588867 115.07691956 C119.80999377 117.78559104 117.06615154 120.47536968 114.31854248 123.1619873 C112.09717778 125.33998585 109.88866408 127.53075401 107.68081665 129.72244167 C89.01243933 148.25180822 89.01243933 148.25180822 80.63964844 155.37060547 C79.9633136 155.95302505 79.28697876 156.53544464 78.59014893 157.13551331 C35.32125787 194.37060547 35.32125787 194.37060547 16.63964844 194.37060547 C17.78500374 190.93453957 18.39989268 190.58926614 21.33105469 188.69091797 C22.10344482 188.18061035 22.87583496 187.67030273 23.67163086 187.14453125 C24.50670166 186.60038574 25.34177246 186.05624023 26.20214844 185.49560547 C35.48477269 179.30368014 44.12786298 172.57408832 52.63964844 165.37060547 C53.42597656 164.71576172 54.21230469 164.06091797 55.02246094 163.38623047 C65.26304146 154.67966403 73.66335009 145.12126846 81.63964844 134.37060547 C66.29464844 136.35060547 66.29464844 136.35060547 50.63964844 138.37060547 C51.79086691 134.91695004 52.21928113 134.77287366 55.20214844 132.99560547 C59.75429989 130.08509604 63.86179544 126.81054863 68.01464844 123.37060547 C80.27995357 113.26769766 92.98410464 103.53324513 106.63964844 95.37060547 C105.14110146 91.87663792 103.13037569 89.60367293 100.45605469 86.92138672 C99.61647217 86.07761475 98.77688965 85.23384277 97.91186523 84.36450195 C97.01765869 83.47964111 96.12345215 82.59478027 95.20214844 81.68310547 C93.83280151 80.32390991 93.83280151 80.32390991 92.43579102 78.93725586 C86.42194984 73.01553159 80.41881987 67.41077205 73.63964844 62.37060547 C72.44944399 61.46318491 71.25934773 60.55562243 70.06933594 59.64794922 C46.83209946 42.09336219 24.64535469 35.27821173 -4.65332031 38.93701172 C-25.07670611 41.98733916 -42.65301226 50.05033461 -59.65893555 61.54589844 C-65.77997969 65.68159184 -72.02029881 69.57675864 -78.36035156 73.37060547 C-79.54177734 74.09570312 -79.54177734 74.09570312 -80.74707031 74.83544922 C-87.13807192 78.61038553 -94.8352341 82.37060547 -102.36035156 82.37060547 C-101.85413096 76.71414053 -100.3051475 72.56001248 -97.67285156 67.55810547 C-97.12504028 66.49946289 -97.12504028 66.49946289 -96.56616211 65.41943359 C-95.5102383 63.39613985 -94.43741266 61.38270342 -93.36035156 59.37060547 C-92.89628906 58.47986328 -92.43222656 57.58912109 -91.95410156 56.67138672 C-79.94642937 35.10882904 -58.605536 15.06072827 -35.36035156 6.37060547 C-34.46058594 6.00580078 -33.56082031 5.64099609 -32.63378906 5.26513672 C-21.89218259 1.07439729 -11.49711008 -0.00279463 0 0 Z " fill="#EBEBE6" transform="translate(376.3603515625,212.62939453125)"/>
<path d="M0 0 C11.32211018 24.26166466 9.31650914 51.54151623 4 77 C3.62488281 78.84851563 3.62488281 78.84851563 3.2421875 80.734375 C1.69125311 87.6155322 -0.8622225 93.70043139 -4 100 C-4.32226562 100.65145996 -4.64453125 101.30291992 -4.9765625 101.97412109 C-7.29567403 106.66065898 -9.6428355 111.33250209 -12 116 C-12.66750882 117.33291193 -13.3346984 118.665985 -14 120 C-20.27393457 117.25341086 -24.70453015 111.62492534 -29 106.4375 C-31.75512765 103.13134682 -34.8552352 100.41352357 -38.16796875 97.67578125 C-40.07169971 95.9344154 -41.51812062 94.1058286 -43 92 C-42.0925 91.05125 -41.185 90.1025 -40.25 89.125 C-33.46509286 81.12679182 -31.91197595 71.05235839 -30 61 C-45.56953519 66.04762756 -60.42504723 71.47994458 -75 79 C-71.13474959 54.5949887 -48.84909838 30.39801482 -29.5625 16.1875 C-7.0129842 0 -7.0129842 0 0 0 Z " fill="#020303" transform="translate(443,82)"/>
<path d="M0 0 C5.08568693 0.50468649 8.790591 2.27994592 13.0625 4.9375 C13.71516846 5.33791504 14.36783691 5.73833008 15.0402832 6.15087891 C38.22015427 20.64145883 57.15529787 40.13431215 69.5625 64.5625 C70.06438843 65.54404053 70.06438843 65.54404053 70.57641602 66.54541016 C72.43767718 70.35024149 73.52660827 73.79135299 74 78 C71.122674 77.34878165 68.51532723 76.45304888 65.8046875 75.29296875 C65.01126953 74.95555664 64.21785156 74.61814453 63.40039062 74.27050781 C62.56701172 73.91311523 61.73363281 73.55572266 60.875 73.1875 C59.15389252 72.45645021 57.43254085 71.72597502 55.7109375 70.99609375 C54.48068848 70.47378174 54.48068848 70.47378174 53.22558594 69.94091797 C45.57360694 66.70586673 37.82217994 63.79576013 30 61 C30.26048323 73.02958913 34.18223622 82.865843 42 92 C40.62128553 95.19347337 39.11775746 96.99609942 36.4375 99.19140625 C31.70358841 103.1987523 27.35884422 107.52955269 23 111.9375 C22.22527344 112.71673828 21.45054688 113.49597656 20.65234375 114.29882812 C18.76589243 116.1969242 16.88183755 118.09733149 15 120 C-4.7748179 96.97332316 -9.7508825 60.11012702 -8 31 C-6.7753616 20.36668596 -4.24386032 9.84214414 0 0 Z " fill="#020303" transform="translate(71,82)"/>
<path d="M0 0 C-8.21099854 18.08078467 -28.33995369 32.72461726 -44 44 C-44.66402832 44.48259277 -45.32805664 44.96518555 -46.01220703 45.46240234 C-56.45015177 53.04583567 -56.45015177 53.04583567 -61.39453125 56.08984375 C-62.25433594 56.72019531 -63.11414063 57.35054688 -64 58 C-64 58.99 -64 59.98 -64 61 C-68.03603908 62.6965938 -72.07457087 64.38706737 -76.11547852 66.07202148 C-77.48856843 66.64555792 -78.86097471 67.22073402 -80.23266602 67.79760742 C-82.20930515 68.62855583 -84.18836262 69.45349302 -86.16796875 70.27734375 C-87.35672607 70.77484131 -88.5454834 71.27233887 -89.77026367 71.78491211 C-93 73 -93 73 -95.86450195 73.54516602 C-96.56921631 73.69526123 -97.27393066 73.84535645 -98 74 C-98.495 74.99 -98.495 74.99 -99 76 C-100.65 76 -102.3 76 -104 76 C-103.58035425 71.69863106 -102.40260288 68.90687977 -100.1875 65.2421875 C-95.99504432 57.32616921 -92.99970291 48.98654 -94 40 C-94.07992188 39.08605469 -94.15984375 38.17210937 -94.2421875 37.23046875 C-94.46508042 34.81579549 -94.71843085 32.40842184 -95 30 C-91.09390557 28.28279245 -87.30842519 27.37263814 -83.125 26.5625 C-77.51869471 25.42988652 -77.51869471 25.42988652 -72.1875 23.4375 C-68.21872092 21.64765845 -64.25828325 20.82075754 -60 20 C-60 19.34 -60 18.68 -60 18 C-59.47535156 17.82726562 -58.95070313 17.65453125 -58.41015625 17.4765625 C-51.39861498 14.93327465 -45.22353463 11.32688897 -38.89086914 7.44189453 C-38.18696045 7.01376465 -37.48305176 6.58563477 -36.7578125 6.14453125 C-35.81639404 5.56215698 -35.81639404 5.56215698 -34.85595703 4.96801758 C-29.67052674 2.26343574 -23.33497399 2.17965458 -17.625 1.4375 C-16.59632813 1.29892578 -15.56765625 1.16035156 -14.5078125 1.01757812 C-9.64284645 0.38124558 -4.91912919 -0.19439858 0 0 Z " fill="#4C565E" transform="translate(458,347)"/>
<path d="M0 0 C37.59980276 5.02795058 37.59980276 5.02795058 52 15 C54.43086718 16.33889154 56.91627562 17.52917004 59.4375 18.6875 C60.35354004 19.10950684 60.35354004 19.10950684 61.28808594 19.54003906 C73.10727544 24.84471467 85.51056103 28.63517492 98 32 C97.89300781 33.01578125 97.78601563 34.0315625 97.67578125 35.078125 C96.39970461 48.83624602 99.00110539 58.8375139 105.4765625 70.96875 C106.69727717 73.3976592 107.51972544 75.3519997 108 78 C103.84852127 79.38382624 102.3575651 77.97825024 98.5 76.0625 C93.95346028 73.68040952 93.95346028 73.68040952 89 73 C89 72.34 89 71.68 89 71 C88.33484375 70.89429688 87.6696875 70.78859375 86.984375 70.6796875 C83.26480329 69.83255991 79.78854663 68.52269183 76.25 67.125 C75.56550781 66.86847656 74.88101563 66.61195313 74.17578125 66.34765625 C72.41324847 65.65311363 70.70102676 64.833918 69 64 C68.67 63.01 68.34 62.02 68 61 C66.13677238 59.47398229 64.2094654 58.02530088 62.25 56.625 C59.11757971 54.37984161 56.23418246 52.2356553 53.515625 49.5 C50.73646129 46.73809817 47.72162705 44.57283548 44.5 42.375 C37.82384912 37.71070666 31.59786285 32.65719258 25.47558594 27.29199219 C24.10839794 26.09491097 22.73041994 24.91018348 21.3515625 23.7265625 C16.66193522 19.62868629 12.28979994 15.31663137 8.0625 10.75 C7.60149902 10.25443604 7.14049805 9.75887207 6.66552734 9.24829102 C4.02335039 6.33837216 1.971749 3.38786532 0 0 Z " fill="#4C565F" transform="translate(53,345)"/>
<path d="M0 0 C3.54746975 3.90735798 3.57238176 7.01025674 3.40234375 12.125 C2.32175745 19.84647107 -2.50349556 25.34109448 -8.34765625 30.203125 C-15.92154314 35.3341824 -24.83365029 38.55189782 -34 37 C-46.02443402 33.97700324 -53.83208902 27.61908442 -60.140625 17.09765625 C-61.85332553 12.91710996 -61.52485176 8.42187608 -61 4 C-59.18083935 0.57158186 -57.8897003 -0.56599986 -54.4375 -2.25 C-40.72493738 -5.24183184 -12.0046369 -8.52961043 0 0 Z " fill="#030303" transform="translate(286,383)"/>
<path d="M0 0 C20.13734221 2.94405588 41.32639446 18.58420469 58.25 29 C59.29236816 29.63494385 60.33473633 30.2698877 61.40869141 30.92407227 C62.37210449 31.52662842 63.33551758 32.12918457 64.328125 32.75 C65.1830957 33.28109375 66.03806641 33.8121875 66.91894531 34.359375 C69.11767489 36.09277044 69.98390867 37.42123028 71 40 C57.82120755 49.61403711 47.39719796 53.57139814 31 52 C20.38625531 49.57163207 10.87722626 42.14562021 5.02734375 32.96484375 C-0.62125664 22.16162703 -0.44705271 11.871733 0 0 Z " fill="#008CCD" transform="translate(129,273)"/>
<path d="M0 0 C0.34852376 15.78038144 -0.65749359 28.97254211 -11.98046875 41.18359375 C-15.61640827 44.45382948 -19.68972062 46.73551607 -24 49 C-25.051875 49.61875 -26.10375 50.2375 -27.1875 50.875 C-38.05429824 54.0815962 -50.54997645 52.68161647 -60.48828125 47.4765625 C-64.22792343 45.27814143 -67.63726075 42.73339978 -71 40 C-69.57942665 36.4859007 -68.07518861 35.11169542 -64.81640625 33.23046875 C-63.97650146 32.73756348 -63.13659668 32.2446582 -62.27124023 31.73681641 C-61.37735596 31.22554199 -60.48347168 30.71426758 -59.5625 30.1875 C-57.73109884 29.11703427 -55.9003638 28.04542804 -54.0703125 26.97265625 C-53.19020508 26.45977051 -52.31009766 25.94688477 -51.40332031 25.41845703 C-48.53368663 23.72477847 -45.7291209 21.94402994 -42.9375 20.125 C-34.04469981 14.39456267 -24.58669515 9.70358108 -15.0625 5.125 C-14.04865234 4.62742187 -13.03480469 4.12984375 -11.99023438 3.6171875 C-10.5274707 2.91335938 -10.5274707 2.91335938 -9.03515625 2.1953125 C-8.1625415 1.77266113 -7.28992676 1.35000977 -6.39086914 0.91455078 C-4 0 -4 0 0 0 Z " fill="#008CCC" transform="translate(385,273)"/>
<path d="M0 0 C3.63 0 7.26 0 11 0 C12 1 12 1 12.11352539 4.23461914 C12.11336631 5.66814126 12.10767407 7.10166912 12.09765625 8.53515625 C12.0962413 9.28840683 12.09482635 10.04165741 12.09336853 10.81773376 C12.08775376 13.2326956 12.07519883 15.64756601 12.0625 18.0625 C12.0574869 19.69596221 12.05292366 21.32942586 12.04882812 22.96289062 C12.03777954 26.97529585 12.02050506 30.98763241 12 35 C8.04 35 4.08 35 0 35 C0 23.45 0 11.9 0 0 Z " fill="#0094D5" transform="translate(223,187)"/>
<path d="M0 0 C0.9075 0.00257813 1.815 0.00515625 2.75 0.0078125 C4.11125 0.00394531 4.11125 0.00394531 5.5 0 C7.75 0.1328125 7.75 0.1328125 8.75 1.1328125 C8.83847743 3.65375326 8.86527301 6.14712143 8.84765625 8.66796875 C8.8462413 9.42121933 8.84482635 10.17446991 8.84336853 10.95054626 C8.83775376 13.3655081 8.82519883 15.78037851 8.8125 18.1953125 C8.8074869 19.82877471 8.80292366 21.46223836 8.79882812 23.09570312 C8.78777954 27.10810835 8.77050506 31.12044491 8.75 35.1328125 C4.79 35.1328125 0.83 35.1328125 -3.25 35.1328125 C-3.2746519 30.30900448 -3.29283693 25.48523283 -3.30493164 20.66137695 C-3.30997174 19.01911786 -3.31680378 17.37686327 -3.32543945 15.73461914 C-3.33751926 13.37905771 -3.34323139 11.02355541 -3.34765625 8.66796875 C-3.35281754 7.92942154 -3.35797882 7.19087433 -3.36329651 6.4299469 C-3.3634925 4.66383162 -3.31194719 2.89784104 -3.25 1.1328125 C-2.25 0.1328125 -2.25 0.1328125 0 0 Z " fill="#0192D2" transform="translate(283.25,186.8671875)"/>
<path d="M0 0 C1.50046875 0.00386719 1.50046875 0.00386719 3.03125 0.0078125 C4.0315625 0.00523437 5.031875 0.00265625 6.0625 0 C8.53125 0.1328125 8.53125 0.1328125 9.53125 1.1328125 C9.61794432 2.6215311 9.63828494 4.1142575 9.62890625 5.60546875 C9.62568359 6.50458984 9.62246094 7.40371094 9.61914062 8.33007812 C9.61076172 9.27560547 9.60238281 10.22113281 9.59375 11.1953125 C9.58923828 12.14470703 9.58472656 13.09410156 9.58007812 14.07226562 C9.5682511 16.42584315 9.55177025 18.77929727 9.53125 21.1328125 C7.55215602 21.15967803 5.57296029 21.17914625 3.59375 21.1953125 C2.49160156 21.20691406 1.38945312 21.21851563 0.25390625 21.23046875 C-2.46875 21.1328125 -2.46875 21.1328125 -3.46875 20.1328125 C-3.56735131 18.72932515 -3.59953937 17.32100773 -3.6015625 15.9140625 C-3.60285156 15.06457031 -3.60414063 14.21507812 -3.60546875 13.33984375 C-3.60160156 12.44652344 -3.59773437 11.55320313 -3.59375 10.6328125 C-3.59761719 9.73949219 -3.60148438 8.84617188 -3.60546875 7.92578125 C-3.60417969 7.07628906 -3.60289062 6.22679687 -3.6015625 5.3515625 C-3.60043457 4.56716797 -3.59930664 3.78277344 -3.59814453 2.97460938 C-3.39562341 0.09193136 -2.89383711 0.15568111 0 0 Z " fill="#0291D0" transform="translate(198.46875,163.8671875)"/>
<path d="M0 0 C3.96 0 7.92 0 12 0 C12.19378567 3.31224424 12.38032505 6.62461488 12.5625 9.9375 C12.61857422 10.88302734 12.67464844 11.82855469 12.73242188 12.80273438 C12.78076172 13.70185547 12.82910156 14.60097656 12.87890625 15.52734375 C12.9260376 16.35999756 12.97316895 17.19265137 13.02172852 18.05053711 C13 20 13 20 12 21 C7.99779347 21.14355117 4.00558317 21.04216403 0 21 C0 14.07 0 7.14 0 0 Z " fill="#0093D4" transform="translate(306,164)"/>
<path d="M0 0 C1.17949219 0.01804687 2.35898437 0.03609375 3.57421875 0.0546875 C4.92966797 0.08949219 4.92966797 0.08949219 6.3125 0.125 C6.3125 0.785 6.3125 1.445 6.3125 2.125 C1.02944183 3.81557861 -4.35849269 3.41688056 -9.6875 2.125 C-6.05554504 -0.29630331 -4.30400652 -0.08522785 0 0 Z " fill="#F7F6F2" transform="translate(258.6875,453.875)"/>
<path d="M0 0 C0.66 0.33 1.32 0.66 2 1 C0.515 2.485 0.515 2.485 -1 4 C0.32 4.66 1.64 5.32 3 6 C-0.3 6.33 -3.6 6.66 -7 7 C-5.66667905 3.00003714 -3.5042173 2.16217663 0 0 Z " fill="#C6C6C3" transform="translate(434,344)"/>
<path d="M0 0 C0 3.58912412 -0.66436554 4.10857029 -3 6.6875 C-3.556875 7.31011719 -4.11375 7.93273437 -4.6875 8.57421875 C-5.120625 9.04472656 -5.55375 9.51523437 -6 10 C-6.66 9.67 -7.32 9.34 -8 9 C-5.36 6.03 -2.72 3.06 0 0 Z " fill="#C7C8C6" transform="translate(30,277)"/>
<path d="M0 0 C1.32 0.66 2.64 1.32 4 2 C1.08235 3.9451 -0.62537285 4.45276317 -4 5 C-3 2 -3 2 0 0 Z " fill="#CFCFCC" transform="translate(397,402)"/>
<path d="M0 0 C0 0.33 0 0.66 0 1 C-3.96 0.67 -7.92 0.34 -12 0 C-12 -0.33 -12 -0.66 -12 -1 C-7.28400182 -1.92470553 -4.32734391 -2.22923777 0 0 Z " fill="#C7C7C4" transform="translate(88,350)"/>
</svg>
