<svg xmlns="http://www.w3.org/2000/svg" width="1024" height="810" viewBox="0 0 1024 810" version="1.1"><path d="M 259.485 439.025 C 259.180 439.518, 258.656 445.046, 258.320 451.311 C 256.684 481.844, 268.432 510.381, 289.028 525.900 C 297.029 531.929, 302.526 534.894, 314.500 539.638 C 321.086 542.247, 322.416 542.411, 337 542.417 C 345.798 542.420, 354.013 541.935, 356 541.294 C 364.393 538.587, 371.985 535.572, 378.500 532.361 C 385.613 528.855, 400.171 518.312, 400.384 516.514 C 400.448 515.971, 397.575 513.636, 394 511.325 C 390.425 509.014, 386.956 506.646, 386.292 506.062 C 385.628 505.478, 384.615 505, 384.042 505 C 383.469 505, 382.996 504.663, 382.992 504.250 C 382.988 503.837, 381.975 503.015, 380.742 502.423 C 379.509 501.830, 373.628 498.343, 367.673 494.673 C 361.718 491.003, 356.651 488, 356.414 488 C 356.176 488, 352.145 485.525, 347.456 482.500 C 342.767 479.475, 338.779 477, 338.593 477 C 338.408 477, 333.811 474.475, 328.378 471.388 C 303.021 456.982, 260.679 437.092, 259.485 439.025 M 764.500 439.569 C 762.850 440.313, 759.250 441.902, 756.500 443.100 C 739.146 450.656, 717.577 461.895, 691.500 476.970 C 689.300 478.242, 685.475 480.404, 683 481.775 C 680.525 483.146, 678.050 484.612, 677.500 485.034 C 676.950 485.455, 668.400 490.693, 658.500 496.674 C 637.742 509.214, 628 515.697, 628 516.969 C 628 518.648, 644.481 530.224, 651.601 533.545 C 664.854 539.729, 673.561 542.063, 685.500 542.633 C 698.252 543.241, 705.806 542.230, 715.282 538.648 C 730.601 532.856, 742.551 524.397, 751.666 512.893 C 757.947 504.966, 761.939 497.274, 766.145 485 C 769.326 475.715, 769.401 475.100, 769.450 457.801 C 769.480 447.228, 769.097 439.721, 768.500 439.158 C 767.869 438.563, 766.392 438.715, 764.500 439.569" stroke="none" fill="#048cd3" fill-rule="evenodd"/><path d="M 120.199 2.750 C 119.134 4.263, 117.923 6.625, 117.509 8 C 117.094 9.375, 116.415 10.950, 116 11.500 C 115.584 12.050, 113.578 16.325, 111.542 21 C 109.506 25.675, 107.227 30.850, 106.478 32.500 C 102.385 41.516, 90.881 81.824, 88.640 95 C 85.888 111.175, 84.921 157.646, 86.954 176 C 88.064 186.020, 88.701 189.505, 92.990 209 C 96.765 226.166, 103.429 247.039, 107.980 255.960 C 109.091 258.138, 110 260.417, 110 261.024 C 110 262.215, 112.400 267.617, 118.875 281 C 122.484 288.459, 124.886 292.976, 131.906 305.500 C 132.831 307.150, 135.232 311.030, 137.242 314.122 C 143.034 323.030, 143.051 322.879, 134.552 337.843 C 130.398 345.156, 127 351.286, 127 351.467 C 127 351.648, 125.146 354.847, 122.880 358.577 C 120.614 362.307, 117.650 367.348, 116.292 369.779 C 114.935 372.210, 112.555 376.292, 111.003 378.850 C 106.752 385.856, 97.991 402.734, 96.668 406.468 C 96.025 408.280, 93.250 412.210, 90.500 415.202 C 87.750 418.193, 83.250 423.288, 80.500 426.523 C 77.750 429.758, 73.630 434.452, 71.344 436.953 C 67.402 441.267, 61.618 447.866, 40.630 471.997 C 35.608 477.770, 24.412 489.738, 15.750 498.593 C 1.285 513.378, -1.646 517.255, 0.948 518.167 C 1.470 518.350, 21.832 538.312, 46.198 562.526 C 110.792 626.719, 127.747 641.536, 164 665.479 C 190.116 682.726, 227.743 702.643, 250 711 C 251.925 711.723, 259.575 714.895, 267 718.049 C 274.425 721.203, 284.550 725.444, 289.500 727.472 C 294.450 729.500, 301.450 732.654, 305.055 734.480 C 308.987 736.471, 313.099 737.800, 315.332 737.800 C 317.379 737.800, 319.646 738.291, 320.369 738.891 C 321.092 739.492, 321.951 739.715, 322.278 739.389 C 322.794 738.873, 415.583 776.624, 454 792.980 C 461.425 796.141, 472.675 800.183, 479 801.961 C 485.325 803.740, 491.850 805.635, 493.500 806.172 C 501.090 808.641, 514.391 809.715, 522.500 808.513 C 538.825 806.093, 569.720 795.680, 588.500 786.268 C 592.900 784.062, 621.475 772.693, 652 761.002 C 728.616 731.658, 749.053 723.540, 758.999 718.501 C 761.713 717.125, 764.388 716, 764.944 716 C 767.384 716, 808.790 697.543, 821.500 690.789 C 844.527 678.554, 870.788 661.651, 887 648.628 C 914.967 626.164, 927.102 614.960, 974.370 567.955 L 1025.240 517.369 1024.489 513.949 C 1023.926 511.384, 1019.987 506.648, 1008.745 495.014 C 994.833 480.618, 978.111 461.783, 955.107 434.600 C 949.941 428.495, 943.741 421.300, 941.329 418.611 C 938.918 415.922, 937.145 413.521, 937.391 413.276 C 937.962 412.705, 930.219 399.087, 913.069 370.500 C 895.116 340.574, 885.796 325.507, 885.066 325.226 C 883.580 324.653, 885.384 318.357, 887.996 315 C 895.781 304.993, 911.109 276.323, 919.337 256.378 C 920.898 252.595, 922.801 248.150, 923.566 246.500 C 927.582 237.843, 937.220 200.633, 939.555 184.773 C 943.386 158.745, 943.147 120.088, 938.987 93.091 C 937.851 85.716, 936.733 79.378, 936.503 79.006 C 936.274 78.634, 935.360 74.819, 934.474 70.529 C 931.811 57.636, 923.267 33.509, 915.252 16.250 C 907.786 0.173, 907.671 0, 904.483 0 C 901.213 0, 890.970 2.920, 885.500 5.411 C 883.850 6.163, 876.875 9.168, 870 12.090 C 863.125 15.011, 856.375 18.161, 855 19.088 C 853.625 20.016, 845.975 23.939, 838 27.807 C 807.225 42.733, 775.345 63.105, 745.500 86.915 C 736.740 93.904, 714.894 112.926, 700.742 125.888 C 687.449 138.063, 686.496 138.331, 673.602 133.538 C 668.596 131.677, 662.250 129.465, 659.500 128.622 C 656.750 127.779, 650.900 125.988, 646.500 124.642 C 642.100 123.296, 636.250 121.867, 633.500 121.467 C 630.750 121.067, 627.375 120.194, 626 119.526 C 624.625 118.858, 619.450 117.751, 614.500 117.066 C 609.550 116.380, 602.988 115.192, 599.918 114.426 C 585.106 110.728, 560.190 108.786, 521 108.274 C 470.265 107.612, 449.712 109.568, 406.588 119.162 C 389.401 122.985, 358.934 132.401, 347.766 137.340 L 342.443 139.694 325.971 124.253 C 300.381 100.262, 280.261 83.820, 258.695 69.275 C 251.988 64.751, 246.050 60.679, 245.500 60.226 C 240.421 56.045, 214.176 40.290, 196 30.513 C 188.580 26.521, 161.154 13.564, 152.500 9.961 C 125.167 -1.418, 123.411 -1.810, 120.199 2.750 M 259.485 439.025 C 259.180 439.518, 258.656 445.046, 258.320 451.311 C 256.684 481.844, 268.432 510.381, 289.028 525.900 C 297.029 531.929, 302.526 534.894, 314.500 539.638 C 321.086 542.247, 322.416 542.411, 337 542.417 C 345.798 542.420, 354.013 541.935, 356 541.294 C 364.393 538.587, 371.985 535.572, 378.500 532.361 C 385.613 528.855, 400.171 518.312, 400.384 516.514 C 400.448 515.971, 397.575 513.636, 394 511.325 C 390.425 509.014, 386.956 506.646, 386.292 506.062 C 385.628 505.478, 384.615 505, 384.042 505 C 383.469 505, 382.996 504.663, 382.992 504.250 C 382.988 503.837, 381.975 503.015, 380.742 502.423 C 379.509 501.830, 373.628 498.343, 367.673 494.673 C 361.718 491.003, 356.651 488, 356.414 488 C 356.176 488, 352.145 485.525, 347.456 482.500 C 342.767 479.475, 338.779 477, 338.593 477 C 338.408 477, 333.811 474.475, 328.378 471.388 C 303.021 456.982, 260.679 437.092, 259.485 439.025 M 764.500 439.569 C 762.850 440.313, 759.250 441.902, 756.500 443.100 C 739.146 450.656, 717.577 461.895, 691.500 476.970 C 689.300 478.242, 685.475 480.404, 683 481.775 C 680.525 483.146, 678.050 484.612, 677.500 485.034 C 676.950 485.455, 668.400 490.693, 658.500 496.674 C 637.742 509.214, 628 515.697, 628 516.969 C 628 518.648, 644.481 530.224, 651.601 533.545 C 664.854 539.729, 673.561 542.063, 685.500 542.633 C 698.252 543.241, 705.806 542.230, 715.282 538.648 C 730.601 532.856, 742.551 524.397, 751.666 512.893 C 757.947 504.966, 761.939 497.274, 766.145 485 C 769.326 475.715, 769.401 475.100, 769.450 457.801 C 769.480 447.228, 769.097 439.721, 768.500 439.158 C 767.869 438.563, 766.392 438.715, 764.500 439.569" stroke="none" fill="#4b545c" fill-rule="evenodd"/></svg>